<svg xmlns="http://www.w3.org/2000/svg" xmlns:xlink="http://www.w3.org/1999/xlink" viewBox="0 0 341.53 128.16"><defs><style>.cls-1{fill:#fff;}.cls-2{fill:url(#linear-gradient);}.cls-3{fill:url(#linear-gradient-2);}.cls-4{fill:url(#linear-gradient-3);}</style><linearGradient id="linear-gradient" x1="62.51" y1="76.15" x2="83.92" y2="76.15" gradientUnits="userSpaceOnUse"><stop offset="0" stop-color="#fff" stop-opacity="0"/><stop offset="1" stop-color="#fff"/></linearGradient><linearGradient id="linear-gradient-2" x1="266.68" y1="76.2" x2="281.8" y2="76.2" xlink:href="#linear-gradient"/><linearGradient id="linear-gradient-3" x1="117.15" y1="270.86" x2="132.28" y2="270.86" gradientTransform="translate(407.88 -77.82) rotate(90)" xlink:href="#linear-gradient"/></defs><g id="gixel"><rect class="cls-1" x="131.86" y="54.46" width="10.32" height="61.12"/><polygon class="cls-1" points="209.15 39.33 188.65 68.74 168.03 39.33 156.31 39.33 182.8 76.69 156.31 115.58 168.03 115.58 188.65 85.05 209.15 115.58 220.99 115.58 194.37 76.69 220.99 39.33 209.15 39.33"/><rect class="cls-1" x="320.9" y="12.27" width="10.32" height="105.12"/><path class="cls-1" d="M83.92,71.48v9.34h21.8c-5.26,14.82-21.74,27.1-40.65,27.1-25.23,0-45.16-19.24-45.16-43.78,0-24.81,19.65-43.9,45-43.9,15.89,0,29.28,7.24,36.38,19.8h11.57c0-.13-.11-.24-.16-.36-.72-1.4-1.47-2.77-2.3-4.1-.58-.92-1.09-1.87-1.73-2.76a56.94,56.94,0,0,0-3.77-4.58,57.39,57.39,0,0,0-5.58-5.44c-1.08-.92-2.13-1.87-3.28-2.71s-2.29-1.53-3.47-2.25A59.36,59.36,0,0,0,64.1,10.76a56,56,0,0,0-32.39,10A54.42,54.42,0,0,0,10.32,64.54a54.2,54.2,0,0,0,8.81,29.84c10,14,26.83,23,46.36,23a54.27,54.27,0,0,0,27.43-7.28A55.67,55.67,0,0,0,107,97.3a59.54,59.54,0,0,0,10.27-25.82Z"/><rect class="cls-2" x="62.51" y="71.48" width="21.41" height="9.34"/><path class="cls-1" d="M297.22,80.87h9.28c0-.25.05-.49.07-.74-.13-11-3.21-20.08-8.26-27.07A39.71,39.71,0,0,0,267,37.53h-.06a39.92,39.92,0,1,0,8,79.05l.14,0a39.36,39.36,0,0,0,6.54-2c.7-.29,1.38-.6,2.05-.92a37.79,37.79,0,0,0,3.81-2.07c.94-.58,1.89-1.14,2.78-1.79s1.62-1.31,2.41-2a41.79,41.79,0,0,0,4.09-4,38.59,38.59,0,0,0,2.77-3.36c.47-.65.85-1.35,1.27-2a40.49,40.49,0,0,0,2.42-4.44c.27-.6.53-1.19.76-1.79s.33-1.1.51-1.64h-9.94a30.4,30.4,0,0,1-17.86,15.75c-.61.2-1.19.39-1.81.56a30.12,30.12,0,0,1-7.09,1c-.16,0-.3.07-.45.07h-.22a29.14,29.14,0,0,1-3.64-.37c-.64-.08-1.3-.07-1.93-.19A30.3,30.3,0,0,1,247,54.78a29.66,29.66,0,0,1,2.6-2.15c.3-.21.58-.42.88-.62a28.8,28.8,0,0,1,16.32-5l.19,0,.16,0c.47,0,.91.12,1.37.14a31.38,31.38,0,0,1,4.14.42c.79.14,1.54.38,2.31.58,1,.28,2.08.58,3.08,1,.83.32,1.62.7,2.41,1.09s1.39.72,2.07,1.12a29,29,0,0,1,4.8,3.7,30.38,30.38,0,0,1,9.61,16.52H281.8v9.34Z"/><rect class="cls-3" x="266.68" y="71.53" width="15.13" height="9.34"/><rect class="cls-4" x="131.86" y="39.33" width="10.32" height="15.13"/></g></svg>